<svg xmlns="http://www.w3.org/2000/svg" viewBox="0 0 800 800">
  <!-- Geometric pattern inspired by Leonardo da Vinci -->

  <!-- Base circular grid -->
  <defs>
    <pattern id="circleGrid" width="200" height="200" patternUnits="userSpaceOnUse">
      <circle cx="100" cy="100" r="80" fill="none" stroke="currentColor" stroke-width="0.5" opacity="0.1"/>
    </pattern>
  </defs>
  <rect width="100%" height="100%" fill="url(#circleGrid)"/>

  <!-- First Motif - Flower of Life Base -->
  <g transform="translate(400, 400)" opacity="0.2">
    <path fill="none" stroke="currentColor" stroke-width="1.5" d="
      M 0,-200 A 200,200 0 1,1 -173.2,-100
      M -173.2,-100 A 200,200 0 1,1 -173.2,100
      M -173.2,100 A 200,200 0 1,1 0,200
      M 0,200 A 200,200 0 1,1 173.2,100
      M 173.2,100 A 200,200 0 1,1 173.2,-100
      M 173.2,-100 A 200,200 0 1,1 0,-200">
      <animateTransform
        attributeName="transform"
        type="rotate"
        from="0 0 0"
        to="360 0 0"
        dur="60s"
        repeatCount="indefinite"/>
    </path>
  </g>

  <!-- Second Motif - Pentagonal Star -->
  <g transform="translate(400, 400)" opacity="0.2">
    <path fill="none" stroke="currentColor" stroke-width="1.5" d="
      M 0,-160 L 152,-49.4 L 94,129.4 L -94,129.4 L -152,-49.4 Z
      M 0,-160 L 94,129.4 M 152,-49.4 L -94,129.4 M -152,-49.4 L 0,-160">
      <animateTransform
        attributeName="transform"
        type="rotate"
        from="360 0 0"
        to="0 0 0"
        dur="45s"
        repeatCount="indefinite"/>
    </path>
  </g>

  <!-- Third Motif - Vitruvian Proportions -->
  <g transform="translate(400, 400)" opacity="0.2">
    <path fill="none" stroke="currentColor" stroke-width="1.5" d="
      M -140,0 L 140,0 M 0,-140 L 0,140
      M -99,-99 L 99,99 M -99,99 L 99,-99
      M 0,0 m -120,0 a 120,120 0 1,0 240,0 a 120,120 0 1,0 -240,0">
      <animateTransform
        attributeName="transform"
        type="rotate"
        from="0 0 0"
        to="360 0 0"
        dur="30s"
        repeatCount="indefinite"/>
    </path>
  </g>

  <!-- Fourth Motif - Fibonacci Spiral -->
  <g transform="translate(400, 400)" opacity="0.25">
    <path fill="none" stroke="currentColor" stroke-width="2" d="
      M 0,0 C 0,-80 80,-80 80,0 C 80,80 -80,80 -80,0 C -80,-120 120,-120 120,0
      C 120,120 -120,120 -120,0 C -120,-160 160,-160 160,0">
      <animateTransform
        attributeName="transform"
        type="rotate"
        from="360 0 0"
        to="0 0 0"
        dur="40s"
        repeatCount="indefinite"/>
    </path>
  </g>

  <!-- Fifth Motif - Sacred Geometry -->
  <g transform="translate(400, 400)" opacity="0.2">
    <path fill="none" stroke="currentColor" stroke-width="1.5" d="
      M -80,-138.56 L 80,-138.56 L 160,0 L 80,138.56 L -80,138.56 L -160,0 Z
      M -80,-138.56 L 80,138.56 M 80,-138.56 L -80,138.56
      M -160,0 L 160,0">
      <animateTransform
        attributeName="transform"
        type="rotate"
        from="0 0 0"
        to="360 0 0"
        dur="50s"
        repeatCount="indefinite"/>
    </path>
  </g>

  <!-- Sixth Motif - Dynamic Circles -->
  <g transform="translate(400, 400)" opacity="0.25">
    <path fill="none" stroke="currentColor" stroke-width="2" d="
      M 0,0 m -180,0 a 180,180 0 1,0 360,0 a 180,180 0 1,0 -360,0
      M 0,0 m -120,0 a 120,120 0 1,0 240,0 a 120,120 0 1,0 -240,0
      M 0,0 m -60,0 a 60,60 0 1,0 120,0 a 60,60 0 1,0 -120,0">
      <animate attributeName="stroke-width" 
               values="2;3;2"
               dur="4s"
               repeatCount="indefinite"/>
      <animateTransform
        attributeName="transform"
        type="rotate"
        from="360 0 0"
        to="0 0 0"
        dur="35s"
        repeatCount="indefinite"/>
    </path>
  </g>
</svg>