<svg xmlns="http://www.w3.org/2000/svg" viewBox="0 0 800 800">
  <!-- Large gear -->
  <g class="gear-large" transform="translate(400, 400)">
    <path fill="currentColor" opacity="0.1" d="
      M -60,-170 L -40,-170 L -30,-160 L -30,-140 L -40,-130 L -60,-130 L -70,-140 L -70,-160 Z
      M 60,-170 L 40,-170 L 30,-160 L 30,-140 L 40,-130 L 60,-130 L 70,-140 L 70,-160 Z
      M 170,-60 L 170,-40 L 160,-30 L 140,-30 L 130,-40 L 130,-60 L 140,-70 L 160,-70 Z
      M 170,60 L 170,40 L 160,30 L 140,30 L 130,40 L 130,60 L 140,70 L 160,70 Z
      M 60,170 L 40,170 L 30,160 L 30,140 L 40,130 L 60,130 L 70,140 L 70,160 Z
      M -60,170 L -40,170 L -30,160 L -30,140 L -40,130 L -60,130 L -70,140 L -70,160 Z
      M -170,60 L -170,40 L -160,30 L -140,30 L -130,40 L -130,60 L -140,70 L -160,70 Z
      M -170,-60 L -170,-40 L -160,-30 L -140,-30 L -130,-40 L -130,-60 L -140,-70 L -160,-70 Z
      M 0,0 m -100,0 a 100,100 0 1,0 200,0 a 100,100 0 1,0 -200,0
      M 0,0 m -80,0 a 80,80 0 1,0 160,0 a 80,80 0 1,0 -160,0
      M -80,0 L -30,0
      M 30,0 L 80,0
      M 0,-80 L 0,-30
      M 0,30 L 0,80
      M -56,-56 L -21,-21
      M 21,21 L 56,56
      M -56,56 L -21,21
      M 21,-21 L 56,-56">
      <animateTransform
        attributeName="transform"
        type="rotate"
        from="0 0 0"
        to="360 0 0"
        dur="30s"
        repeatCount="indefinite"/>
    </path>
  </g>

  <!-- Medium gear -->
  <g class="gear-medium" transform="translate(200, 400)">
    <path fill="currentColor" opacity="0.08" d="
      M -40,-120 L -25,-120 L -20,-110 L -20,-95 L -25,-85 L -40,-85 L -45,-95 L -45,-110 Z
      M 40,-120 L 25,-120 L 20,-110 L 20,-95 L 25,-85 L 40,-85 L 45,-95 L 45,-110 Z
      M 120,-40 L 120,-25 L 110,-20 L 95,-20 L 85,-25 L 85,-40 L 95,-45 L 110,-45 Z
      M 120,40 L 120,25 L 110,20 L 95,20 L 85,25 L 85,40 L 95,45 L 110,45 Z
      M 40,120 L 25,120 L 20,110 L 20,95 L 25,85 L 40,85 L 45,95 L 45,110 Z
      M -40,120 L -25,120 L -20,110 L -20,95 L -25,85 L -40,85 L -45,95 L -45,110 Z
      M -120,40 L -120,25 L -110,20 L -95,20 L -85,25 L -85,40 L -95,45 L -110,45 Z
      M -120,-40 L -120,-25 L -110,-20 L -95,-20 L -85,-25 L -85,-40 L -95,-45 L -110,-45 Z
      M 0,0 m -70,0 a 70,70 0 1,0 140,0 a 70,70 0 1,0 -140,0
      M 0,0 m -50,0 a 50,50 0 1,0 100,0 a 50,50 0 1,0 -100,0
      M -50,0 L -20,0
      M 20,0 L 50,0
      M 0,-50 L 0,-20
      M 0,20 L 0,50
      M -35,-35 L -14,-14
      M 14,14 L 35,35
      M -35,35 L -14,14
      M 14,-14 L 35,-35">
      <animateTransform
        attributeName="transform"
        type="rotate"
        from="360 0 0"
        to="0 0 0"
        dur="20s"
        repeatCount="indefinite"/>
    </path>
  </g>

  <!-- Small gear -->
  <g class="gear-small" transform="translate(600, 600)">
    <path fill="currentColor" opacity="0.06" d="
      M -30,-90 L -20,-90 L -15,-82 L -15,-72 L -20,-65 L -30,-65 L -35,-72 L -35,-82 Z
      M 30,-90 L 20,-90 L 15,-82 L 15,-72 L 20,-65 L 30,-65 L 35,-72 L 35,-82 Z
      M 90,-30 L 90,-20 L 82,-15 L 72,-15 L 65,-20 L 65,-30 L 72,-35 L 82,-35 Z
      M 90,30 L 90,20 L 82,15 L 72,15 L 65,20 L 65,30 L 72,35 L 82,35 Z
      M 30,90 L 20,90 L 15,82 L 15,72 L 20,65 L 30,65 L 35,72 L 35,82 Z
      M -30,90 L -20,90 L -15,82 L -15,72 L -20,65 L -30,65 L -35,72 L -35,82 Z
      M -90,30 L -90,20 L -82,15 L -72,15 L -65,20 L -65,30 L -72,35 L -82,35 Z
      M -90,-30 L -90,-20 L -82,-15 L -72,-15 L -65,-20 L -65,-30 L -72,-35 L -82,-35 Z
      M 0,0 m -50,0 a 50,50 0 1,0 100,0 a 50,50 0 1,0 -100,0
      M 0,0 m -35,0 a 35,35 0 1,0 70,0 a 35,35 0 1,0 -70,0
      M -35,0 L -15,0
      M 15,0 L 35,0
      M 0,-35 L 0,-15
      M 0,15 L 0,35
      M -25,-25 L -10,-10
      M 10,10 L 25,25
      M -25,25 L -10,10
      M 10,-10 L 25,-25">
      <animateTransform
        attributeName="transform"
        type="rotate"
        from="0 0 0"
        to="360 0 0"
        dur="15s"
        repeatCount="indefinite"/>
    </path>
  </g>
</svg>