<svg xmlns="http://www.w3.org/2000/svg" viewBox="0 0 800 800">
  <!-- Large gear -->
  <g class="gear-large">
    <path fill="currentColor" opacity="0.1" d="M400 100c-11 0-20-9-20-20v-40c0-11 9-20 20-20s20 9 20 20v40c0 11-9 20-20 20zm0 600c-11 0-20-9-20-20v-40c0-11 9-20 20-20s20 9 20 20v40c0 11-9 20-20 20zm300-300h-40c-11 0-20-9-20-20s9-20 20-20h40c11 0 20 9 20 20s-9 20-20 20zm-560 0h-40c-11 0-20-9-20-20s9-20 20-20h40c11 0 20 9 20 20s-9 20-20 20zm452-187l-28 28c-8 8-20 8-28 0s-8-20 0-28l28-28c8-8 20-8 28 0s8 20 0 28zm-424 424l-28 28c-8 8-20 8-28 0s-8-20 0-28l28-28c8-8 20-8 28 0s8 20 0 28zm424 0c-8 8-20 8-28 0l-28-28c-8-8-8-20 0-28s20-8 28 0l28 28c8 8 8 20 0 28zm-424-424c-8-8-8-20 0-28l28-28c8-8 20-8 28 0s8 20 0 28l-28 28c-8 8-20 8-28 0z
    M400 480c-44.1 0-80-35.9-80-80s35.9-80 80-80 80 35.9 80 80-35.9 80-80 80z">
      <animateTransform
        attributeName="transform"
        type="rotate"
        from="0 400 400"
        to="360 400 400"
        dur="30s"
        repeatCount="indefinite"/>
    </path>
  </g>

  <!-- Medium gear -->
  <g class="gear-medium">
    <path fill="currentColor" opacity="0.08" d="M200 260c-8.8 0-16-7.2-16-16v-32c0-8.8 7.2-16 16-16s16 7.2 16 16v32c0 8.8-7.2 16-16 16zm0 240c-8.8 0-16-7.2-16-16v-32c0-8.8 7.2-16 16-16s16 7.2 16 16v32c0 8.8-7.2 16-16 16zm120-120h-32c-8.8 0-16-7.2-16-16s7.2-16 16-16h32c8.8 0 16 7.2 16 16s-7.2 16-16 16zm-208 0h-32c-8.8 0-16-7.2-16-16s7.2-16 16-16h32c8.8 0 16 7.2 16 16s-7.2 16-16 16zm166-69l-22 22c-6.2 6.2-16.4 6.2-22.6 0-6.2-6.2-6.2-16.4 0-22.6l22-22c6.2-6.2 16.4-6.2 22.6 0 6.2 6.2 6.2 16.4 0 22.6zm-166 166l-22 22c-6.2 6.2-16.4 6.2-22.6 0-6.2-6.2-6.2-16.4 0-22.6l22-22c6.2-6.2 16.4-6.2 22.6 0 6.2 6.2 6.2 16.4 0 22.6zm166 0c-6.2 6.2-16.4 6.2-22.6 0l-22-22c-6.2-6.2-6.2-16.4 0-22.6 6.2-6.2 16.4-6.2 22.6 0l22 22c6.2 6.2 6.2 16.4 0 22.6zm-166-166c-6.2-6.2-6.2-16.4 0-22.6l22-22c6.2-6.2 16.4-6.2 22.6 0 6.2 6.2 6.2 16.4 0 22.6l-22 22c-6.2 6.2-16.4 6.2-22.6 0z
    M200 320c-35.3 0-64-28.7-64-64s28.7-64 64-64 64 28.7 64 64-28.7 64-64 64z">
      <animateTransform
        attributeName="transform"
        type="rotate"
        from="360 400 400"
        to="0 400 400"
        dur="20s"
        repeatCount="indefinite"/>
    </path>
  </g>

  <!-- Small gear -->
  <g class="gear-small">
    <path fill="currentColor" opacity="0.06" d="M600 580c-6.6 0-12-5.4-12-12v-24c0-6.6 5.4-12 12-12s12 5.4 12 12v24c0 6.6-5.4 12-12 12zm0 180c-6.6 0-12-5.4-12-12v-24c0-6.6 5.4-12 12-12s12 5.4 12 12v24c0 6.6-5.4 12-12 12zm90-90h-24c-6.6 0-12-5.4-12-12s5.4-12 12-12h24c6.6 0 12 5.4 12 12s-5.4 12-12 12zm-156 0h-24c-6.6 0-12-5.4-12-12s5.4-12 12-12h24c6.6 0 12 5.4 12 12s-5.4 12-12 12zm124-52l-17 17c-4.7 4.7-12.3 4.7-17 0-4.7-4.7-4.7-12.3 0-17l17-17c4.7-4.7 12.3-4.7 17 0 4.7 4.7 4.7 12.3 0 17zm-124 124l-17 17c-4.7 4.7-12.3 4.7-17 0-4.7-4.7-4.7-12.3 0-17l17-17c4.7-4.7 12.3-4.7 17 0 4.7 4.7 4.7 12.3 0 17zm124 0c-4.7 4.7-12.3 4.7-17 0l-17-17c-4.7-4.7-4.7-12.3 0-17 4.7-4.7 12.3-4.7 17 0l17 17c4.7 4.7 4.7 12.3 0 17zm-124-124c-4.7-4.7-4.7-12.3 0-17l17-17c4.7-4.7 12.3-4.7 17 0 4.7 4.7 4.7 12.3 0 17l-17 17c-4.7 4.7-12.3 4.7-17 0z
    M600 620c-26.5 0-48-21.5-48-48s21.5-48 48-48 48 21.5 48 48-21.5 48-48 48z">
      <animateTransform
        attributeName="transform"
        type="rotate"
        from="0 400 400"
        to="360 400 400"
        dur="15s"
        repeatCount="indefinite"/>
    </path>
  </g>
</svg>